custom-analysis
version=1
nRows=4
nColumns=98
inDegrees=no

This file contains tibia displacement and acting force.

Units are S.I. units (seconds, meters, Newtons, ...)
Angles are in degrees.

endheader
time	APT	SIT	knee_angle	aACL_R_force	pACL_R_force	aPCL_R_force	pPCL_R_force	aMCL_R_force	mMCL_R_force	pMCL_R_force	aLCL_R_force	mLCL_R_force	pLCL_R_force	aPCL_L_force	pPCL_L_force	aMCL_L_force	aLCL_L_force	aACL_R_length	pACL_R_length	aPCL_R_length	pPCL_R_length	aMCL_R_length	mMCL_R_length	pMCL_R_length	aLCL_R_length	mLCL_R_length	pLCL_R_length	aPCL_L_length	pPCL_L_length	aMCL_L_length	aLCL_L_length	aACL_R_strain	pACL_R_strain	aPCL_R_strain	pPCL_R_strain	aMCL_R_strain	mMCL_R_strain	pMCL_R_strain	aLCL_R_strain	mLCL_R_strain	pLCL_R_strain	aPCL_L_strain	pPCL_L_strain	aMCL_L_strain	aLCL_L_strain	femur_lat_meniscii_r.femur_lat_r.force.X	femur_lat_meniscii_r.femur_lat_r.force.Y	femur_lat_meniscii_r.femur_lat_r.force.Z	femur_lat_meniscii_r.femur_lat_r.torque.X	femur_lat_meniscii_r.femur_lat_r.torque.Y	femur_lat_meniscii_r.femur_lat_r.torque.Z	femur_lat_meniscii_r.meniscus_lat_r.force.X	femur_lat_meniscii_r.meniscus_lat_r.force.Y	femur_lat_meniscii_r.meniscus_lat_r.force.Z	femur_lat_meniscii_r.meniscus_lat_r.torque.X	femur_lat_meniscii_r.meniscus_lat_r.torque.Y	femur_lat_meniscii_r.meniscus_lat_r.torque.Z	femur_med_meniscii_r.femur_med_r.force.X	femur_med_meniscii_r.femur_med_r.force.Y	femur_med_meniscii_r.femur_med_r.force.Z	femur_med_meniscii_r.femur_med_r.torque.X	femur_med_meniscii_r.femur_med_r.torque.Y	femur_med_meniscii_r.femur_med_r.torque.Z	femur_med_meniscii_r.meniscus_med_r.force.X	femur_med_meniscii_r.meniscus_med_r.force.Y	femur_med_meniscii_r.meniscus_med_r.force.Z	femur_med_meniscii_r.meniscus_med_r.torque.X	femur_med_meniscii_r.meniscus_med_r.torque.Y	femur_med_meniscii_r.meniscus_med_r.torque.Z	femur_med_tibia_r.tibia_upper_r.force.X	femur_med_tibia_r.tibia_upper_r.force.Y	femur_med_tibia_r.tibia_upper_r.force.Z	femur_med_tibia_r.tibia_upper_r.torque.X	femur_med_tibia_r.tibia_upper_r.torque.Y	femur_med_tibia_r.tibia_upper_r.torque.Z	femur_med_tibia_r.femur_med_r.force.X	femur_med_tibia_r.femur_med_r.force.Y	femur_med_tibia_r.femur_med_r.force.Z	femur_med_tibia_r.femur_med_r.torque.X	femur_med_tibia_r.femur_med_r.torque.Y	femur_med_tibia_r.femur_med_r.torque.Z	femur_lat_tibia_r.tibia_upper_r.force.X	femur_lat_tibia_r.tibia_upper_r.force.Y	femur_lat_tibia_r.tibia_upper_r.force.Z	femur_lat_tibia_r.tibia_upper_r.torque.X	femur_lat_tibia_r.tibia_upper_r.torque.Y	femur_lat_tibia_r.tibia_upper_r.torque.Z	femur_lat_tibia_r.femur_lat_r.force.X	femur_lat_tibia_r.femur_lat_r.force.Y	femur_lat_tibia_r.femur_lat_r.force.Z	femur_lat_tibia_r.femur_lat_r.torque.X	femur_lat_tibia_r.femur_lat_r.torque.Y	femur_lat_tibia_r.femur_lat_r.torque.Z	femur_lat_meniscii_force_r	femur_med_meniscii_force_r	femur_lat_tibia_force_r	femur_med_tibia_force_r
      0.51175872	      0.00439784	     -0.00019985	     40.00017107	     49.17402490	     13.65375523	     87.16026212	     24.25892430	      0.00000000	      0.00000000	      0.00000000	      0.00000000	      0.00000000	      0.00000000	      0.00000000	      0.00000000	      0.00000001	      0.00000000	      0.03352374	      0.02615163	      0.03227657	      0.03033346	      0.05869615	      0.05950217	      0.05762882	      0.05438939	      0.05051261	      0.04623718	      0.01525851	      0.01651186	      0.06550154	      0.04489616	      0.08121916	      0.04361474	      0.03798865	      0.01491118	     -0.02217082	     -0.00487219	     -0.01871648	     -0.02836527	     -0.10309188	     -0.11664519	      0.00000079	     -0.32847694	      0.00000060	     -0.00000086	     72.09244202	     62.30175721	     13.91249645	     -7.27888044	      1.82403387	     29.62757548	    -72.09244202	    -62.30175721	    -13.91249645	      2.09769735	     -2.24959067	     -0.87378000	    113.44901888	     46.77912985	      2.52196411	     -0.05856568	     -2.34574913	     46.28028983	   -113.44901888	    -46.77912985	     -2.52196411	     -0.77944675	      1.98234109	     -1.84206852	      0.00000000	      0.00000000	      0.00000000	      0.00000000	      0.00000000	      0.00000000	      0.00000000	      0.00000000	      0.00000000	      0.00000000	      0.00000000	      0.00000000	      0.00000000	      0.00000000	      0.00000000	      0.00000000	      0.00000000	      0.00000000	      0.00000000	      0.00000000	      0.00000000	      0.00000000	      0.00000000	      0.00000000	     96.29323292	    122.74089448	      0.00000000	      0.00000000
      0.51795803	      0.00440868	     -0.00020205	     40.00017107	     48.72756628	     13.12972196	     86.72046446	     23.62489189	      0.00000000	      0.00000000	      0.00000000	      0.00000000	      0.00000000	      0.00000000	      0.00000000	      0.00000000	      0.00000001	      0.00000000	      0.03351990	      0.02614335	      0.03227578	      0.03033530	      0.05871612	      0.05952217	      0.05764933	      0.05437164	      0.05049502	      0.04621979	      0.01525851	      0.01651186	      0.06550154	      0.04489616	      0.08109528	      0.04328421	      0.03796329	      0.01497266	     -0.02183822	     -0.00453774	     -0.01836719	     -0.02868232	     -0.10340418	     -0.11697727	      0.00000079	     -0.32847694	      0.00000060	     -0.00000086	     70.76321757	     61.17166048	     13.21123367	     -6.96112426	      1.78972444	     29.07821358	    -70.76321757	    -61.17166048	    -13.21123367	      2.04662852	     -2.20038719	     -0.85326025	    112.79897211	     46.41697220	      2.61692881	     -0.10607425	     -2.33004589	     46.01661367	   -112.79897211	    -46.41697220	     -2.61692881	     -0.76964281	      1.96714485	     -1.83323712	      0.00000000	      0.00000000	      0.00000000	      0.00000000	      0.00000000	      0.00000000	      0.00000000	      0.00000000	      0.00000000	      0.00000000	      0.00000000	      0.00000000	      0.00000000	      0.00000000	      0.00000000	      0.00000000	      0.00000000	      0.00000000	      0.00000000	      0.00000000	      0.00000000	      0.00000000	      0.00000000	      0.00000000	     94.46661686	    122.00406442	      0.00000000	      0.00000000
      0.52415735	      0.00442014	     -0.00019751	     40.00017107	     48.49334206	     12.91507498	     86.03879956	     23.80452306	      0.00000000	      0.00000000	      0.00000000	      0.00000000	      0.00000000	      0.00000000	      0.00000000	      0.00000000	      0.00000001	      0.00000000	      0.03350944	      0.02612788	      0.03226979	      0.03033208	      0.05873057	      0.05953665	      0.05766451	      0.05434725	      0.05047084	      0.04619590	      0.01525851	      0.01651186	      0.06550154	      0.04489616	      0.08075788	      0.04266688	      0.03777071	      0.01486479	     -0.02159740	     -0.00429561	     -0.01810882	     -0.02911808	     -0.10383360	     -0.11743381	      0.00000079	     -0.32847694	      0.00000060	     -0.00000086	     71.27584895	     61.63486861	     12.62294675	     -6.73643239	      1.80819718	     29.29096540	    -71.27584895	    -61.63486861	    -12.62294675	      2.04943895	     -2.21071793	     -0.86030202	    113.21667773	     46.38104257	      2.79727120	     -0.18191276	     -2.33802960	     46.19138401	   -113.21667773	    -46.38104257	     -2.79727120	     -0.76366795	      1.97175180	     -1.84679122	      0.00000000	      0.00000000	      0.00000000	      0.00000000	      0.00000000	      0.00000000	      0.00000000	      0.00000000	      0.00000000	      0.00000000	      0.00000000	      0.00000000	      0.00000000	      0.00000000	      0.00000000	      0.00000000	      0.00000000	      0.00000000	      0.00000000	      0.00000000	      0.00000000	      0.00000000	      0.00000000	      0.00000000	     95.07072345	    122.38072541	      0.00000000	      0.00000000
      0.52477728	      0.00442127	     -0.00019743	     40.00017107	     48.49621242	     12.91522703	     86.06409522	     23.99313967	      0.00000000	      0.00000000	      0.00000000	      0.00000000	      0.00000000	      0.00000000	      0.00000000	      0.00000000	      0.00000001	      0.00000000	      0.03350879	      0.02612676	      0.03226946	      0.03033202	      0.05873236	      0.05953844	      0.05766635	      0.05434512	      0.05046872	      0.04619380	      0.01525851	      0.01651186	      0.06550154	      0.04489616	      0.08073708	      0.04262248	      0.03775996	      0.01486277	     -0.02156768	     -0.00426572	     -0.01807741	     -0.02915622	     -0.10387120	     -0.11747382	      0.00000079	     -0.32847694	      0.00000060	     -0.00000086	     71.37018781	     61.73989643	     12.72973908	     -6.78347513	      1.81127973	     29.32972285	    -71.37018781	    -61.73989643	    -12.72973908	      2.05562261	     -2.21575469	     -0.86095669	    113.11790030	     46.30842375	      2.85015058	     -0.20521425	     -2.33534601	     46.15147520	   -113.11790030	    -46.30842375	     -2.85015058	     -0.76095410	      1.96853509	     -1.84596664	      0.00000000	      0.00000000	      0.00000000	      0.00000000	      0.00000000	      0.00000000	      0.00000000	      0.00000000	      0.00000000	      0.00000000	      0.00000000	      0.00000000	      0.00000000	      0.00000000	      0.00000000	      0.00000000	      0.00000000	      0.00000000	      0.00000000	      0.00000000	      0.00000000	      0.00000000	      0.00000000	      0.00000000	     95.22376161	    122.26304772	      0.00000000	      0.00000000
